<svg width="380" height="277" viewBox="0 0 380 277" fill="none" xmlns="http://www.w3.org/2000/svg">
<g clip-path="url(#clip0_940_2014)">
<path d="M1.11035 19.8449V5.55669H3.31105L9.23905 12.6214L15.167 5.55669H17.3677V19.8449H15.7618V7.38241L9.23905 15.1417L2.71626 7.38241V19.8449H1.11035ZM22.3388 24.4092V22.7621H29.5158C29.7273 22.7621 29.9058 22.6827 30.0512 22.524C30.2098 22.3784 30.2891 22.1998 30.2891 21.9882V19.8449H22.6164C22.1802 19.8449 21.7771 19.7391 21.407 19.5274C21.0501 19.3025 20.7593 19.0114 20.5346 18.6542C20.3232 18.2838 20.2174 17.8803 20.2174 17.4437V8.37465H21.8432V17.4437C21.8432 17.6554 21.9158 17.8406 22.0612 17.9994C22.2198 18.1449 22.4049 18.2177 22.6164 18.2177H29.5158C29.7273 18.2177 29.9058 18.1449 30.0512 17.9994C30.2098 17.8406 30.2891 17.6554 30.2891 17.4437V8.37465H31.9148V21.9882C31.9148 22.438 31.8091 22.8415 31.5976 23.1987C31.3861 23.5691 31.0953 23.8602 30.7252 24.0719C30.3684 24.2968 29.9652 24.4092 29.5158 24.4092H22.3388ZM43.7318 19.8449C43.2956 19.8449 42.8925 19.7391 42.5224 19.5274C42.1656 19.3157 41.8814 19.0313 41.6699 18.6741C41.4584 18.3037 41.3527 17.9001 41.3527 17.4636V16.9079H42.9586V17.4636C42.9586 17.6752 43.0313 17.8605 43.1767 18.0192C43.3353 18.1647 43.5203 18.2375 43.7318 18.2375H53.2483C53.4598 18.2375 53.6382 18.1647 53.7836 18.0192C53.9422 17.8605 54.0215 17.6752 54.0215 17.4636V14.2685C54.0215 14.0569 53.9422 13.8783 53.7836 13.7327C53.6382 13.5872 53.4598 13.5144 53.2483 13.5144H43.7318C43.2956 13.5144 42.8925 13.4086 42.5224 13.1969C42.1656 12.972 41.8814 12.681 41.6699 12.3238C41.4584 11.9666 41.3527 11.5697 41.3527 11.1331V7.93807C41.3527 7.50148 41.4584 7.10458 41.6699 6.74738C41.8814 6.37694 42.1656 6.08589 42.5224 5.87421C42.8925 5.66253 43.2956 5.55669 43.7318 5.55669H53.2483C53.6845 5.55669 54.081 5.66253 54.4379 5.87421C54.808 6.08589 55.0988 6.37694 55.3102 6.74738C55.5217 7.10458 55.6275 7.50148 55.6275 7.93807V8.49372H54.0215V7.93807C54.0215 7.72639 53.9422 7.54778 53.7836 7.40226C53.6382 7.2435 53.4598 7.16412 53.2483 7.16412H43.7318C43.5203 7.16412 43.3353 7.2435 43.1767 7.40226C43.0313 7.54778 42.9586 7.72639 42.9586 7.93807V11.1331C42.9586 11.3448 43.0313 11.5234 43.1767 11.6689C43.3353 11.8144 43.5203 11.8872 43.7318 11.8872H53.2483C53.6845 11.8872 54.081 11.9996 54.4379 12.2245C54.808 12.4362 55.0988 12.7207 55.3102 13.0779C55.5217 13.4351 55.6275 13.832 55.6275 14.2685V17.4636C55.6275 17.9001 55.5217 18.3037 55.3102 18.6741C55.0988 19.0313 54.808 19.3157 54.4379 19.5274C54.081 19.7391 53.6845 19.8449 53.2483 19.8449H43.7318ZM58.7058 19.8449V4.56445H60.3315V13.2763H63.5037L68.0241 8.33496H70.1653V8.35481L64.951 14.0899L70.1454 19.8251V19.8449H68.0241L63.5037 14.9036H60.3315V19.8449H58.7058ZM72.4747 19.8449V8.33496H74.1004V19.8449H72.4747ZM72.4747 6.19172V4.56445H74.1004V6.19172H72.4747ZM79.9889 19.8449C79.5528 19.8449 79.1496 19.7391 78.7795 19.5274C78.4227 19.3025 78.1319 19.0114 77.9072 18.6542C77.6957 18.2838 77.59 17.8803 77.59 17.4437V4.56445H79.2157V17.4437C79.2157 17.6554 79.2884 17.8406 79.4338 17.9994C79.5924 18.1449 79.7775 18.2177 79.9889 18.2177H81.9319V19.8449H79.9889ZM86.9631 19.8449C86.5269 19.8449 86.1238 19.7391 85.7537 19.5274C85.3968 19.3025 85.106 19.0114 84.8813 18.6542C84.6699 18.2838 84.5641 17.8803 84.5641 17.4437V4.56445H86.1899V17.4437C86.1899 17.6554 86.2626 17.8406 86.408 17.9994C86.5666 18.1449 86.7516 18.2177 86.9631 18.2177H88.906V19.8449H86.9631Z" fill="white"/>
<path d="M115.239 29.3535H0.413086V144.288H115.239V29.3535Z" fill="white" stroke="white"/>
<path d="M24.4282 95.0893V80.8011H26.0341V87.1316H37.4341V80.8011H39.0599V95.0893H37.4341V88.7589H26.0341V95.0893H24.4282ZM47.8941 95.0893V82.4085H41.5497V80.8011H55.8245V82.4085H49.5V95.0893H47.8941ZM58.2986 95.0893V80.8011H60.4993L66.4273 87.8658L72.3553 80.8011H74.556V95.0893H72.9501V82.6268L66.4273 90.3861L59.9045 82.6268V95.0893H58.2986ZM77.7031 95.0893V80.7812H79.309V93.4819H91.978V95.0893H77.7031Z" fill="#555555"/>
<path d="M247.413 29.3535H132.587V144.288H247.413V29.3535Z" fill="white" stroke="white"/>
<path d="M156.603 95.0893V80.8011H158.208V87.1316H169.608V80.8011H171.234V95.0893H169.608V88.7589H158.208V95.0893H156.603ZM180.068 95.0893V82.4085H173.724V80.8011H187.999V82.4085H181.674V95.0893H180.068ZM190.473 95.0893V80.8011H192.674L198.602 87.8658L204.53 80.8011H206.73V95.0893H205.124V82.6268L198.602 90.3861L192.079 82.6268V95.0893H190.473ZM209.878 95.0893V80.7812H211.484V93.4819H224.153V95.0893H209.878Z" fill="#555555"/>
<path d="M379.587 29.3535H264.761V144.288H379.587V29.3535Z" fill="white" stroke="white"/>
<path d="M288.776 95.0893V80.8011H290.382V87.1316H301.782V80.8011H303.408V95.0893H301.782V88.7589H290.382V95.0893H288.776ZM312.242 95.0893V82.4085H305.898V80.8011H320.173V82.4085H313.848V95.0893H312.242ZM322.647 95.0893V80.8011H324.847L330.775 87.8658L336.703 80.8011H338.904V95.0893H337.298V82.6268L330.775 90.3861L324.253 82.6268V95.0893H322.647ZM342.052 95.0893V80.7812H343.657V93.4819H356.326V95.0893H342.052Z" fill="#555555"/>
<path d="M115.239 161.652H0.413086V276.587H115.239V161.652Z" fill="white" stroke="white"/>
<path d="M35.7053 227.388C35.2691 227.388 34.866 227.282 34.4959 227.07C34.139 226.859 33.8549 226.574 33.6434 226.217C33.4319 225.847 33.3262 225.443 33.3262 225.006V215.481C33.3262 215.044 33.4319 214.648 33.6434 214.29C33.8549 213.92 34.139 213.629 34.4959 213.417C34.866 213.205 35.2691 213.1 35.7053 213.1H47.5613V214.707H35.7053C35.4938 214.707 35.3088 214.786 35.1502 214.945C35.0048 215.091 34.9321 215.269 34.9321 215.481V225.006C34.9321 225.218 35.0048 225.403 35.1502 225.562C35.3088 225.708 35.4938 225.78 35.7053 225.78H47.5613V227.388H35.7053ZM52.8998 227.388C52.4636 227.388 52.0605 227.282 51.6904 227.07C51.3335 226.859 51.0494 226.574 50.8379 226.217C50.6264 225.847 50.5207 225.443 50.5207 225.006V224.451H52.1266V225.006C52.1266 225.218 52.1993 225.403 52.3447 225.562C52.5033 225.708 52.6883 225.78 52.8998 225.78H62.4163C62.6278 225.78 62.8062 225.708 62.9516 225.562C63.1102 225.403 63.1895 225.218 63.1895 225.006V221.811C63.1895 221.6 63.1102 221.421 62.9516 221.276C62.8062 221.13 62.6278 221.057 62.4163 221.057H52.8998C52.4636 221.057 52.0605 220.952 51.6904 220.74C51.3335 220.515 51.0494 220.224 50.8379 219.867C50.6264 219.509 50.5207 219.113 50.5207 218.676V215.481C50.5207 215.044 50.6264 214.648 50.8379 214.29C51.0494 213.92 51.3335 213.629 51.6904 213.417C52.0605 213.205 52.4636 213.1 52.8998 213.1H62.4163C62.8525 213.1 63.249 213.205 63.6059 213.417C63.976 213.629 64.2668 213.92 64.4782 214.29C64.6897 214.648 64.7955 215.044 64.7955 215.481V216.037H63.1895V215.481C63.1895 215.269 63.1102 215.091 62.9516 214.945C62.8062 214.786 62.6278 214.707 62.4163 214.707H52.8998C52.6883 214.707 52.5033 214.786 52.3447 214.945C52.1993 215.091 52.1266 215.269 52.1266 215.481V218.676C52.1266 218.888 52.1993 219.066 52.3447 219.212C52.5033 219.357 52.6883 219.43 52.8998 219.43H62.4163C62.8525 219.43 63.249 219.543 63.6059 219.767C63.976 219.979 64.2668 220.264 64.4782 220.621C64.6897 220.978 64.7955 221.375 64.7955 221.811V225.006C64.7955 225.443 64.6897 225.847 64.4782 226.217C64.2668 226.574 63.976 226.859 63.6059 227.07C63.249 227.282 62.8525 227.388 62.4163 227.388H52.8998ZM70.1934 227.388C69.7572 227.388 69.3541 227.282 68.984 227.07C68.6271 226.859 68.3429 226.574 68.1314 226.217C67.92 225.847 67.8142 225.443 67.8142 225.006V224.451H69.4201V225.006C69.4201 225.218 69.4928 225.403 69.6382 225.562C69.7968 225.708 69.9819 225.78 70.1934 225.78H79.7099C79.9214 225.78 80.0998 225.708 80.2452 225.562C80.4038 225.403 80.4831 225.218 80.4831 225.006V221.811C80.4831 221.6 80.4038 221.421 80.2452 221.276C80.0998 221.13 79.9214 221.057 79.7099 221.057H70.1934C69.7572 221.057 69.3541 220.952 68.984 220.74C68.6271 220.515 68.3429 220.224 68.1314 219.867C67.92 219.509 67.8142 219.113 67.8142 218.676V215.481C67.8142 215.044 67.92 214.648 68.1314 214.29C68.3429 213.92 68.6271 213.629 68.984 213.417C69.3541 213.205 69.7572 213.1 70.1934 213.1H79.7099C80.1461 213.1 80.5426 213.205 80.8994 213.417C81.2695 213.629 81.5603 213.92 81.7718 214.29C81.9833 214.648 82.089 215.044 82.089 215.481V216.037H80.4831V215.481C80.4831 215.269 80.4038 215.091 80.2452 214.945C80.0998 214.786 79.9214 214.707 79.7099 214.707H70.1934C69.9819 214.707 69.7968 214.786 69.6382 214.945C69.4928 215.091 69.4201 215.269 69.4201 215.481V218.676C69.4201 218.888 69.4928 219.066 69.6382 219.212C69.7968 219.357 69.9819 219.43 70.1934 219.43H79.7099C80.1461 219.43 80.5426 219.543 80.8994 219.767C81.2695 219.979 81.5603 220.264 81.7718 220.621C81.9833 220.978 82.089 221.375 82.089 221.811V225.006C82.089 225.443 81.9833 225.847 81.7718 226.217C81.5603 226.574 81.2695 226.859 80.8994 227.07C80.5426 227.282 80.1461 227.388 79.7099 227.388H70.1934Z" fill="#555555"/>
<path d="M247.413 161.652H132.587V276.587H247.413V161.652Z" fill="white" stroke="white"/>
<path d="M167.879 227.388C167.443 227.388 167.04 227.282 166.67 227.07C166.313 226.859 166.029 226.574 165.817 226.217C165.606 225.847 165.5 225.443 165.5 225.006V215.481C165.5 215.044 165.606 214.648 165.817 214.29C166.029 213.92 166.313 213.629 166.67 213.417C167.04 213.205 167.443 213.1 167.879 213.1H179.735V214.707H167.879C167.668 214.707 167.483 214.786 167.324 214.945C167.179 215.091 167.106 215.269 167.106 215.481V225.006C167.106 225.218 167.179 225.403 167.324 225.562C167.483 225.708 167.668 225.78 167.879 225.78H179.735V227.388H167.879ZM185.074 227.388C184.638 227.388 184.235 227.282 183.865 227.07C183.508 226.859 183.224 226.574 183.012 226.217C182.801 225.847 182.695 225.443 182.695 225.006V224.451H184.301V225.006C184.301 225.218 184.374 225.403 184.519 225.562C184.678 225.708 184.863 225.78 185.074 225.78H194.591C194.802 225.78 194.981 225.708 195.126 225.562C195.285 225.403 195.364 225.218 195.364 225.006V221.811C195.364 221.6 195.285 221.421 195.126 221.276C194.981 221.13 194.802 221.057 194.591 221.057H185.074C184.638 221.057 184.235 220.952 183.865 220.74C183.508 220.515 183.224 220.224 183.012 219.867C182.801 219.509 182.695 219.113 182.695 218.676V215.481C182.695 215.044 182.801 214.648 183.012 214.29C183.224 213.92 183.508 213.629 183.865 213.417C184.235 213.205 184.638 213.1 185.074 213.1H194.591C195.027 213.1 195.423 213.205 195.78 213.417C196.15 213.629 196.441 213.92 196.653 214.29C196.864 214.648 196.97 215.044 196.97 215.481V216.037H195.364V215.481C195.364 215.269 195.285 215.091 195.126 214.945C194.981 214.786 194.802 214.707 194.591 214.707H185.074C184.863 214.707 184.678 214.786 184.519 214.945C184.374 215.091 184.301 215.269 184.301 215.481V218.676C184.301 218.888 184.374 219.066 184.519 219.212C184.678 219.357 184.863 219.43 185.074 219.43H194.591C195.027 219.43 195.423 219.543 195.78 219.767C196.15 219.979 196.441 220.264 196.653 220.621C196.864 220.978 196.97 221.375 196.97 221.811V225.006C196.97 225.443 196.864 225.847 196.653 226.217C196.441 226.574 196.15 226.859 195.78 227.07C195.423 227.282 195.027 227.388 194.591 227.388H185.074ZM202.367 227.388C201.931 227.388 201.528 227.282 201.158 227.07C200.801 226.859 200.517 226.574 200.306 226.217C200.094 225.847 199.988 225.443 199.988 225.006V224.451H201.594V225.006C201.594 225.218 201.667 225.403 201.812 225.562C201.971 225.708 202.156 225.78 202.367 225.78H211.884C212.095 225.78 212.274 225.708 212.419 225.562C212.578 225.403 212.657 225.218 212.657 225.006V221.811C212.657 221.6 212.578 221.421 212.419 221.276C212.274 221.13 212.095 221.057 211.884 221.057H202.367C201.931 221.057 201.528 220.952 201.158 220.74C200.801 220.515 200.517 220.224 200.306 219.867C200.094 219.509 199.988 219.113 199.988 218.676V215.481C199.988 215.044 200.094 214.648 200.306 214.29C200.517 213.92 200.801 213.629 201.158 213.417C201.528 213.205 201.931 213.1 202.367 213.1H211.884C212.32 213.1 212.717 213.205 213.074 213.417C213.444 213.629 213.734 213.92 213.946 214.29C214.157 214.648 214.263 215.044 214.263 215.481V216.037H212.657V215.481C212.657 215.269 212.578 215.091 212.419 214.945C212.274 214.786 212.095 214.707 211.884 214.707H202.367C202.156 214.707 201.971 214.786 201.812 214.945C201.667 215.091 201.594 215.269 201.594 215.481V218.676C201.594 218.888 201.667 219.066 201.812 219.212C201.971 219.357 202.156 219.43 202.367 219.43H211.884C212.32 219.43 212.717 219.543 213.074 219.767C213.444 219.979 213.734 220.264 213.946 220.621C214.157 220.978 214.263 221.375 214.263 221.811V225.006C214.263 225.443 214.157 225.847 213.946 226.217C213.734 226.574 213.444 226.859 213.074 227.07C212.717 227.282 212.32 227.388 211.884 227.388H202.367Z" fill="#555555"/>
<path d="M379.587 161.652H264.761V276.587H379.587V161.652Z" fill="white" stroke="white"/>
<path d="M300.053 227.388C299.617 227.388 299.214 227.282 298.844 227.07C298.487 226.859 298.203 226.574 297.991 226.217C297.78 225.847 297.674 225.443 297.674 225.006V215.481C297.674 215.044 297.78 214.648 297.991 214.29C298.203 213.92 298.487 213.629 298.844 213.417C299.214 213.205 299.617 213.1 300.053 213.1H311.909V214.707H300.053C299.841 214.707 299.656 214.786 299.498 214.945C299.352 215.091 299.28 215.269 299.28 215.481V225.006C299.28 225.218 299.352 225.403 299.498 225.562C299.656 225.708 299.841 225.78 300.053 225.78H311.909V227.388H300.053ZM317.248 227.388C316.812 227.388 316.409 227.282 316.039 227.07C315.682 226.859 315.398 226.574 315.186 226.217C314.975 225.847 314.869 225.443 314.869 225.006V224.451H316.475V225.006C316.475 225.218 316.547 225.403 316.693 225.562C316.851 225.708 317.036 225.78 317.248 225.78H326.764C326.976 225.78 327.154 225.708 327.3 225.562C327.458 225.403 327.538 225.218 327.538 225.006V221.811C327.538 221.6 327.458 221.421 327.3 221.276C327.154 221.13 326.976 221.057 326.764 221.057H317.248C316.812 221.057 316.409 220.952 316.039 220.74C315.682 220.515 315.398 220.224 315.186 219.867C314.975 219.509 314.869 219.113 314.869 218.676V215.481C314.869 215.044 314.975 214.648 315.186 214.29C315.398 213.92 315.682 213.629 316.039 213.417C316.409 213.205 316.812 213.1 317.248 213.1H326.764C327.201 213.1 327.597 213.205 327.954 213.417C328.324 213.629 328.615 213.92 328.826 214.29C329.038 214.648 329.144 215.044 329.144 215.481V216.037H327.538V215.481C327.538 215.269 327.458 215.091 327.3 214.945C327.154 214.786 326.976 214.707 326.764 214.707H317.248C317.036 214.707 316.851 214.786 316.693 214.945C316.547 215.091 316.475 215.269 316.475 215.481V218.676C316.475 218.888 316.547 219.066 316.693 219.212C316.851 219.357 317.036 219.43 317.248 219.43H326.764C327.201 219.43 327.597 219.543 327.954 219.767C328.324 219.979 328.615 220.264 328.826 220.621C329.038 220.978 329.144 221.375 329.144 221.811V225.006C329.144 225.443 329.038 225.847 328.826 226.217C328.615 226.574 328.324 226.859 327.954 227.07C327.597 227.282 327.201 227.388 326.764 227.388H317.248ZM334.541 227.388C334.105 227.388 333.702 227.282 333.332 227.07C332.975 226.859 332.691 226.574 332.479 226.217C332.268 225.847 332.162 225.443 332.162 225.006V224.451H333.768V225.006C333.768 225.218 333.841 225.403 333.986 225.562C334.145 225.708 334.33 225.78 334.541 225.78H344.058C344.269 225.78 344.448 225.708 344.593 225.562C344.752 225.403 344.831 225.218 344.831 225.006V221.811C344.831 221.6 344.752 221.421 344.593 221.276C344.448 221.13 344.269 221.057 344.058 221.057H334.541C334.105 221.057 333.702 220.952 333.332 220.74C332.975 220.515 332.691 220.224 332.479 219.867C332.268 219.509 332.162 219.113 332.162 218.676V215.481C332.162 215.044 332.268 214.648 332.479 214.29C332.691 213.92 332.975 213.629 333.332 213.417C333.702 213.205 334.105 213.1 334.541 213.1H344.058C344.494 213.1 344.89 213.205 345.247 213.417C345.617 213.629 345.908 213.92 346.12 214.29C346.331 214.648 346.437 215.044 346.437 215.481V216.037H344.831V215.481C344.831 215.269 344.752 215.091 344.593 214.945C344.448 214.786 344.269 214.707 344.058 214.707H334.541C334.33 214.707 334.145 214.786 333.986 214.945C333.841 215.091 333.768 215.269 333.768 215.481V218.676C333.768 218.888 333.841 219.066 333.986 219.212C334.145 219.357 334.33 219.43 334.541 219.43H344.058C344.494 219.43 344.89 219.543 345.247 219.767C345.617 219.979 345.908 220.264 346.12 220.621C346.331 220.978 346.437 221.375 346.437 221.811V225.006C346.437 225.443 346.331 225.847 346.12 226.217C345.908 226.574 345.617 226.859 345.247 227.07C344.89 227.282 344.494 227.388 344.058 227.388H334.541Z" fill="#555555"/>
</g>
<defs>
<clipPath id="clip0_940_2014">
<rect width="380" height="277" fill="white"/>
</clipPath>
</defs>
</svg>
