<svg width="559" height="260" viewBox="0 0 559 260" fill="none" xmlns="http://www.w3.org/2000/svg">
<path d="M245 0L270 30L245 60H25L0 30L25 0H245Z" fill="white"/>
<path d="M74.5529 39C74.0249 39 73.5369 38.872 73.0889 38.616C72.6569 38.36 72.3129 38.016 72.0569 37.584C71.8009 37.136 71.6729 36.648 71.6729 36.12V24.6C71.6729 24.072 71.8009 23.592 72.0569 23.16C72.3129 22.712 72.6569 22.36 73.0889 22.104C73.5369 21.848 74.0249 21.72 74.5529 21.72H88.9049V23.664H74.5529C74.2969 23.664 74.0729 23.76 73.8809 23.952C73.7049 24.128 73.6169 24.344 73.6169 24.6V36.12C73.6169 36.376 73.7049 36.6 73.8809 36.792C74.0729 36.968 74.2969 37.056 74.5529 37.056H88.9049V39H74.5529ZM95.3913 39C94.8633 39 94.3753 38.872 93.9273 38.616C93.4953 38.344 93.1433 37.992 92.8713 37.56C92.6153 37.112 92.4873 36.624 92.4873 36.096V27.984C92.4873 27.456 92.6153 26.976 92.8713 26.544C93.1433 26.096 93.4953 25.744 93.9273 25.488C94.3753 25.216 94.8633 25.08 95.3913 25.08H103.743C104.287 25.08 104.775 25.216 105.207 25.488C105.655 25.744 106.007 26.096 106.263 26.544C106.535 26.976 106.671 27.456 106.671 27.984V36.096C106.671 36.624 106.535 37.112 106.263 37.56C106.007 37.992 105.655 38.344 105.207 38.616C104.775 38.872 104.287 39 103.743 39H95.3913ZM95.3913 37.032H103.743C103.999 37.032 104.215 36.944 104.391 36.768C104.583 36.576 104.679 36.352 104.679 36.096V27.984C104.679 27.728 104.583 27.512 104.391 27.336C104.215 27.144 103.999 27.048 103.743 27.048H95.3913C95.1353 27.048 94.9113 27.144 94.7193 27.336C94.5433 27.512 94.4553 27.728 94.4553 27.984V36.096C94.4553 36.352 94.5433 36.576 94.7193 36.768C94.9113 36.944 95.1353 37.032 95.3913 37.032ZM110.094 39V27.984C110.094 27.456 110.222 26.976 110.478 26.544C110.75 26.096 111.102 25.744 111.534 25.488C111.982 25.216 112.47 25.08 112.998 25.08H120.822V27.048H112.998C112.742 27.048 112.518 27.144 112.326 27.336C112.15 27.512 112.062 27.728 112.062 27.984V39H110.094ZM126.455 39C125.927 39 125.439 38.872 124.991 38.616C124.559 38.344 124.207 37.992 123.935 37.56C123.679 37.112 123.551 36.624 123.551 36.096V27.984C123.551 27.456 123.679 26.976 123.935 26.544C124.207 26.096 124.559 25.744 124.991 25.488C125.439 25.216 125.927 25.08 126.455 25.08H134.807C135.351 25.08 135.839 25.216 136.271 25.488C136.719 25.744 137.071 26.096 137.327 26.544C137.599 26.976 137.735 27.456 137.735 27.984V33.024H125.519V36.096C125.519 36.352 125.607 36.576 125.783 36.768C125.975 36.944 126.199 37.032 126.455 37.032H137.735V39H126.455ZM125.519 31.056H135.743V27.984C135.743 27.728 135.647 27.512 135.455 27.336C135.279 27.144 135.063 27.048 134.807 27.048H126.455C126.199 27.048 125.975 27.144 125.783 27.336C125.607 27.512 125.519 27.728 125.519 27.984V31.056ZM144.249 39C143.721 39 143.233 38.872 142.785 38.616C142.353 38.36 142.009 38.016 141.753 37.584C141.497 37.136 141.369 36.648 141.369 36.12V35.448H143.313V36.12C143.313 36.376 143.401 36.6 143.577 36.792C143.769 36.968 143.993 37.056 144.249 37.056H155.769C156.025 37.056 156.241 36.968 156.417 36.792C156.609 36.6 156.705 36.376 156.705 36.12V32.256C156.705 32 156.609 31.784 156.417 31.608C156.241 31.432 156.025 31.344 155.769 31.344H144.249C143.721 31.344 143.233 31.216 142.785 30.96C142.353 30.688 142.009 30.336 141.753 29.904C141.497 29.472 141.369 28.992 141.369 28.464V24.6C141.369 24.072 141.497 23.592 141.753 23.16C142.009 22.712 142.353 22.36 142.785 22.104C143.233 21.848 143.721 21.72 144.249 21.72H155.769C156.297 21.72 156.777 21.848 157.209 22.104C157.657 22.36 158.009 22.712 158.265 23.16C158.521 23.592 158.649 24.072 158.649 24.6V25.272H156.705V24.6C156.705 24.344 156.609 24.128 156.417 23.952C156.241 23.76 156.025 23.664 155.769 23.664H144.249C143.993 23.664 143.769 23.76 143.577 23.952C143.401 24.128 143.313 24.344 143.313 24.6V28.464C143.313 28.72 143.401 28.936 143.577 29.112C143.769 29.288 143.993 29.376 144.249 29.376H155.769C156.297 29.376 156.777 29.512 157.209 29.784C157.657 30.04 158.009 30.384 158.265 30.816C158.521 31.248 158.649 31.728 158.649 32.256V36.12C158.649 36.648 158.521 37.136 158.265 37.584C158.009 38.016 157.657 38.36 157.209 38.616C156.777 38.872 156.297 39 155.769 39H144.249ZM162.375 39V20.52H164.343V31.056H168.183L173.655 25.08H176.247V25.104L169.935 32.04L176.223 38.976V39H173.655L168.183 33.024H164.343V39H162.375ZM179.043 39V25.08H181.011V39H179.043ZM179.043 22.488V20.52H181.011V22.488H179.043ZM188.139 39C187.611 39 187.123 38.872 186.675 38.616C186.243 38.344 185.891 37.992 185.619 37.56C185.363 37.112 185.235 36.624 185.235 36.096V20.52H187.203V36.096C187.203 36.352 187.291 36.576 187.467 36.768C187.659 36.944 187.883 37.032 188.139 37.032H190.491V39H188.139ZM196.581 39C196.053 39 195.565 38.872 195.117 38.616C194.685 38.344 194.333 37.992 194.061 37.56C193.805 37.112 193.677 36.624 193.677 36.096V20.52H195.645V36.096C195.645 36.352 195.733 36.576 195.909 36.768C196.101 36.944 196.325 37.032 196.581 37.032H198.933V39H196.581Z" fill="#121212"/>
<path d="M559 30L538.787 54H379.213L359 30L379.213 6H538.787L559 30Z" fill="black" fill-opacity="0.6"/>
<path d="M559 30L538.787 54H379.213L359 30L379.213 6H538.787L559 30ZM360.392 30L379.706 52.9333H538.294L557.607 30L538.294 7.06667H379.706L360.392 30Z" fill="white"/>
<path d="M425.476 37.6667V23.2667H427.096V29.6467H438.596V23.2667H440.236V37.6667H438.596V31.2867H427.096V37.6667H425.476ZM449.148 37.6667V24.8867H442.748V23.2667H457.148V24.8867H450.768V37.6667H449.148ZM459.643 37.6667V23.2667H461.863L467.843 30.3867L473.823 23.2667H476.043V37.6667H474.423V25.1067L467.843 32.9267L461.263 25.1067V37.6667H459.643ZM479.218 37.6667V23.2467H480.838V36.0467H493.618V37.6667H479.218Z" fill="white"/>
<line x1="269.5" y1="30" x2="359.5" y2="30" stroke="white"/>
<path d="M245 100L270 130L245 160H25L0 130L25 100H245Z" fill="white"/>
<path d="M58.5076 139V121.72H72.9076C73.4356 121.72 73.9156 121.848 74.3476 122.104C74.7956 122.36 75.1476 122.712 75.4036 123.16C75.6596 123.592 75.7876 124.072 75.7876 124.6V136.12C75.7876 136.648 75.6596 137.136 75.4036 137.584C75.1476 138.016 74.7956 138.36 74.3476 138.616C73.9156 138.872 73.4356 139 72.9076 139H58.5076ZM61.3876 137.056H72.9076C73.1636 137.056 73.3796 136.968 73.5556 136.792C73.7476 136.6 73.8436 136.376 73.8436 136.12V124.6C73.8436 124.344 73.7476 124.128 73.5556 123.952C73.3796 123.76 73.1636 123.664 72.9076 123.664H61.3876C61.1316 123.664 60.9076 123.76 60.7156 123.952C60.5396 124.128 60.4516 124.344 60.4516 124.6V136.12C60.4516 136.376 60.5396 136.6 60.7156 136.792C60.9076 136.968 61.1316 137.056 61.3876 137.056ZM82.4592 139C81.9312 139 81.4432 138.872 80.9952 138.616C80.5632 138.344 80.2112 137.992 79.9392 137.56C79.6832 137.112 79.5552 136.624 79.5552 136.096V127.984C79.5552 127.456 79.6832 126.976 79.9392 126.544C80.2112 126.096 80.5632 125.744 80.9952 125.488C81.4432 125.216 81.9312 125.08 82.4592 125.08H90.8113C91.3552 125.08 91.8432 125.216 92.2752 125.488C92.7232 125.744 93.0752 126.096 93.3312 126.544C93.6032 126.976 93.7392 127.456 93.7392 127.984V133.024H81.5232V136.096C81.5232 136.352 81.6112 136.576 81.7872 136.768C81.9792 136.944 82.2032 137.032 82.4592 137.032H93.7392V139H82.4592ZM81.5232 131.056H91.7472V127.984C91.7472 127.728 91.6512 127.512 91.4593 127.336C91.2832 127.144 91.0672 127.048 90.8113 127.048H82.4592C82.2032 127.048 81.9792 127.144 81.7872 127.336C81.6112 127.512 81.5232 127.728 81.5232 127.984V131.056ZM100.204 139C99.6764 139 99.1884 138.872 98.7404 138.616C98.3084 138.344 97.9564 137.992 97.6844 137.56C97.4284 137.112 97.3004 136.624 97.3004 136.096V135.904H99.2684V136.096C99.2684 136.352 99.3564 136.576 99.5324 136.768C99.7244 136.944 99.9484 137.032 100.204 137.032H108.556C108.812 137.032 109.028 136.944 109.204 136.768C109.396 136.576 109.492 136.352 109.492 136.096V133.96C109.492 133.704 109.396 133.488 109.204 133.312C109.028 133.12 108.812 133.024 108.556 133.024H100.204C99.6764 133.024 99.1884 132.896 98.7404 132.64C98.3084 132.368 97.9564 132.016 97.6844 131.584C97.4284 131.136 97.3004 130.648 97.3004 130.12V127.984C97.3004 127.456 97.4284 126.976 97.6844 126.544C97.9564 126.096 98.3084 125.744 98.7404 125.488C99.1884 125.216 99.6764 125.08 100.204 125.08H108.556C109.1 125.08 109.588 125.216 110.02 125.488C110.468 125.744 110.82 126.096 111.076 126.544C111.348 126.976 111.484 127.456 111.484 127.984V128.176H109.492V127.984C109.492 127.728 109.396 127.512 109.204 127.336C109.028 127.144 108.812 127.048 108.556 127.048H100.204C99.9484 127.048 99.7244 127.144 99.5324 127.336C99.3564 127.512 99.2684 127.728 99.2684 127.984V130.12C99.2684 130.376 99.3564 130.6 99.5324 130.792C99.7244 130.968 99.9484 131.056 100.204 131.056H108.556C109.1 131.056 109.588 131.192 110.02 131.464C110.468 131.72 110.82 132.072 111.076 132.52C111.348 132.952 111.484 133.432 111.484 133.96V136.096C111.484 136.624 111.348 137.112 111.076 137.56C110.82 137.992 110.468 138.344 110.02 138.616C109.588 138.872 109.1 139 108.556 139H100.204ZM115.05 139V125.08H117.018V139H115.05ZM115.05 122.488V120.52H117.018V122.488H115.05ZM123.546 144.496V142.504H132.234C132.49 142.504 132.706 142.408 132.882 142.216C133.074 142.04 133.17 141.824 133.17 141.568V139H123.882C123.354 139 122.866 138.872 122.418 138.616C121.986 138.344 121.634 137.992 121.362 137.56C121.106 137.112 120.978 136.624 120.978 136.096V127.984C120.978 127.456 121.106 126.976 121.362 126.544C121.634 126.096 121.986 125.744 122.418 125.488C122.866 125.216 123.354 125.08 123.882 125.08H132.234C132.778 125.08 133.266 125.216 133.698 125.488C134.146 125.744 134.498 126.096 134.754 126.544C135.01 126.976 135.138 127.456 135.138 127.984V141.568C135.138 142.112 135.01 142.6 134.754 143.032C134.498 143.48 134.146 143.832 133.698 144.088C133.266 144.36 132.778 144.496 132.234 144.496H123.546ZM123.882 137.032H132.234C132.49 137.032 132.706 136.944 132.882 136.768C133.074 136.576 133.17 136.352 133.17 136.096V127.984C133.17 127.728 133.074 127.512 132.882 127.336C132.706 127.144 132.49 127.048 132.234 127.048H123.882C123.626 127.048 123.402 127.144 123.21 127.336C123.034 127.512 122.946 127.728 122.946 127.984V136.096C122.946 136.352 123.034 136.576 123.21 136.768C123.402 136.944 123.626 137.032 123.882 137.032ZM138.873 139V125.08H150.153C150.681 125.08 151.161 125.216 151.593 125.488C152.041 125.744 152.393 126.096 152.649 126.544C152.921 126.976 153.057 127.456 153.057 127.984V139H151.089V127.984C151.089 127.728 150.993 127.512 150.801 127.336C150.625 127.144 150.409 127.048 150.153 127.048H141.801C141.545 127.048 141.321 127.144 141.129 127.336C140.937 127.512 140.841 127.728 140.841 127.984V139H138.873ZM163.647 139V123.664H155.967V121.72H173.247V123.664H165.591V139H163.647ZM176.073 139C175.545 139 175.057 138.872 174.609 138.616C174.177 138.344 173.825 137.992 173.553 137.56C173.297 137.112 173.169 136.624 173.169 136.096V127.984C173.169 127.456 173.297 126.976 173.553 126.544C173.825 126.096 174.177 125.744 174.609 125.488C175.057 125.216 175.545 125.08 176.073 125.08H184.425C184.969 125.08 185.457 125.216 185.889 125.488C186.337 125.744 186.689 126.096 186.945 126.544C187.217 126.976 187.353 127.456 187.353 127.984V136.096C187.353 136.624 187.217 137.112 186.945 137.56C186.689 137.992 186.337 138.344 185.889 138.616C185.457 138.872 184.969 139 184.425 139H176.073ZM176.073 137.032H184.425C184.681 137.032 184.897 136.944 185.073 136.768C185.265 136.576 185.361 136.352 185.361 136.096V127.984C185.361 127.728 185.265 127.512 185.073 127.336C184.897 127.144 184.681 127.048 184.425 127.048H176.073C175.817 127.048 175.593 127.144 175.401 127.336C175.225 127.512 175.137 127.728 175.137 127.984V136.096C175.137 136.352 175.225 136.576 175.401 136.768C175.593 136.944 175.817 137.032 176.073 137.032ZM193.422 139C192.894 139 192.406 138.872 191.958 138.616C191.526 138.344 191.174 137.992 190.902 137.56C190.646 137.112 190.518 136.624 190.518 136.096V127.984C190.518 127.456 190.646 126.976 190.902 126.544C191.174 126.096 191.526 125.744 191.958 125.488C192.406 125.216 192.894 125.08 193.422 125.08H201.774C202.318 125.08 202.806 125.216 203.238 125.488C203.686 125.744 204.038 126.096 204.294 126.544C204.566 126.976 204.702 127.456 204.702 127.984V136.096C204.702 136.624 204.566 137.112 204.294 137.56C204.038 137.992 203.686 138.344 203.238 138.616C202.806 138.872 202.318 139 201.774 139H193.422ZM193.422 137.032H201.774C202.03 137.032 202.246 136.944 202.422 136.768C202.614 136.576 202.71 136.352 202.71 136.096V127.984C202.71 127.728 202.614 127.512 202.422 127.336C202.246 127.144 202.03 127.048 201.774 127.048H193.422C193.166 127.048 192.942 127.144 192.75 127.336C192.574 127.512 192.486 127.728 192.486 127.984V136.096C192.486 136.352 192.574 136.576 192.75 136.768C192.942 136.944 193.166 137.032 193.422 137.032ZM210.794 139C210.266 139 209.778 138.872 209.33 138.616C208.898 138.344 208.546 137.992 208.274 137.56C208.018 137.112 207.89 136.624 207.89 136.096V120.52H209.858V136.096C209.858 136.352 209.946 136.576 210.122 136.768C210.314 136.944 210.538 137.032 210.794 137.032H213.146V139H210.794Z" fill="#121212"/>
<path d="M559 130L538.787 153.5H379.213L359 130L379.213 106.5H538.787L559 130Z" fill="black" fill-opacity="0.6"/>
<path d="M559 130L538.787 153.5H379.213L359 130L379.213 106.5H538.787L559 130ZM360.392 130L379.706 152.456H538.294L557.607 130L538.294 107.544H379.706L360.392 130Z" fill="white"/>
<path d="M397.411 137.944V123.564H409.411C409.851 123.564 410.251 123.678 410.611 123.904C410.984 124.118 411.278 124.404 411.491 124.764C411.704 125.124 411.811 125.524 411.811 125.964V130.184C411.811 130.624 411.704 131.024 411.491 131.384C411.278 131.744 410.984 132.038 410.611 132.264C410.251 132.478 409.851 132.584 409.411 132.584H399.031V137.944H397.411ZM399.811 130.944H409.411C409.624 130.944 409.804 130.871 409.951 130.724C410.111 130.578 410.191 130.398 410.191 130.184V125.964C410.191 125.751 410.111 125.571 409.951 125.424C409.804 125.264 409.624 125.184 409.411 125.184H399.811C399.598 125.184 399.411 125.264 399.251 125.424C399.104 125.571 399.031 125.751 399.031 125.964V130.184C399.031 130.398 399.104 130.578 399.251 130.724C399.411 130.871 399.598 130.944 399.811 130.944ZM414.191 137.944V122.544H415.831V126.344H423.591C424.031 126.344 424.431 126.458 424.791 126.684C425.165 126.898 425.458 127.191 425.671 127.564C425.898 127.924 426.011 128.324 426.011 128.764V137.944H424.371V128.764C424.371 128.551 424.291 128.371 424.131 128.224C423.985 128.064 423.805 127.984 423.591 127.984H416.631C416.418 127.984 416.231 128.064 416.071 128.224C415.911 128.371 415.831 128.551 415.831 128.764V137.944H414.191ZM430.911 137.944C430.471 137.944 430.064 137.838 429.691 137.624C429.331 137.398 429.037 137.104 428.811 136.744C428.597 136.371 428.491 135.964 428.491 135.524V128.764C428.491 128.324 428.597 127.924 428.811 127.564C429.037 127.191 429.331 126.898 429.691 126.684C430.064 126.458 430.471 126.344 430.911 126.344H437.871C438.324 126.344 438.731 126.458 439.091 126.684C439.464 126.898 439.757 127.191 439.971 127.564C440.197 127.924 440.311 128.324 440.311 128.764V135.524C440.311 135.964 440.197 136.371 439.971 136.744C439.757 137.104 439.464 137.398 439.091 137.624C438.731 137.838 438.324 137.944 437.871 137.944H430.911ZM430.911 136.304H437.871C438.084 136.304 438.264 136.231 438.411 136.084C438.571 135.924 438.651 135.738 438.651 135.524V128.764C438.651 128.551 438.571 128.371 438.411 128.224C438.264 128.064 438.084 127.984 437.871 127.984H430.911C430.697 127.984 430.511 128.064 430.351 128.224C430.204 128.371 430.131 128.551 430.131 128.764V135.524C430.131 135.738 430.204 135.924 430.351 136.084C430.511 136.231 430.697 136.304 430.911 136.304ZM445.33 137.944C444.876 137.944 444.463 137.838 444.09 137.624C443.73 137.398 443.443 137.104 443.23 136.744C443.016 136.371 442.91 135.964 442.91 135.524V122.544H444.55V126.344H449.57V127.984H444.55V135.524C444.55 135.738 444.623 135.924 444.77 136.084C444.93 136.231 445.116 136.304 445.33 136.304H449.57V137.944H445.33ZM454.493 137.944C454.053 137.944 453.646 137.838 453.273 137.624C452.913 137.398 452.619 137.104 452.393 136.744C452.179 136.371 452.073 135.964 452.073 135.524V128.764C452.073 128.324 452.179 127.924 452.393 127.564C452.619 127.191 452.913 126.898 453.273 126.684C453.646 126.458 454.053 126.344 454.493 126.344H461.453C461.906 126.344 462.313 126.458 462.673 126.684C463.046 126.898 463.339 127.191 463.553 127.564C463.779 127.924 463.893 128.324 463.893 128.764V135.524C463.893 135.964 463.779 136.371 463.553 136.744C463.339 137.104 463.046 137.398 462.673 137.624C462.313 137.838 461.906 137.944 461.453 137.944H454.493ZM454.493 136.304H461.453C461.666 136.304 461.846 136.231 461.993 136.084C462.153 135.924 462.233 135.738 462.233 135.524V128.764C462.233 128.551 462.153 128.371 461.993 128.224C461.846 128.064 461.666 127.984 461.453 127.984H454.493C454.279 127.984 454.093 128.064 453.933 128.224C453.786 128.371 453.713 128.551 453.713 128.764V135.524C453.713 135.738 453.786 135.924 453.933 136.084C454.093 136.231 454.279 136.304 454.493 136.304ZM468.89 137.944C468.45 137.944 468.043 137.838 467.67 137.624C467.31 137.398 467.016 137.104 466.79 136.744C466.576 136.371 466.47 135.964 466.47 135.524V135.364H468.11V135.524C468.11 135.738 468.183 135.924 468.33 136.084C468.49 136.231 468.676 136.304 468.89 136.304H475.85C476.063 136.304 476.243 136.231 476.39 136.084C476.55 135.924 476.63 135.738 476.63 135.524V133.744C476.63 133.531 476.55 133.351 476.39 133.204C476.243 133.044 476.063 132.964 475.85 132.964H468.89C468.45 132.964 468.043 132.858 467.67 132.644C467.31 132.418 467.016 132.124 466.79 131.764C466.576 131.391 466.47 130.984 466.47 130.544V128.764C466.47 128.324 466.576 127.924 466.79 127.564C467.016 127.191 467.31 126.898 467.67 126.684C468.043 126.458 468.45 126.344 468.89 126.344H475.85C476.303 126.344 476.71 126.458 477.07 126.684C477.443 126.898 477.736 127.191 477.95 127.564C478.176 127.924 478.29 128.324 478.29 128.764V128.924H476.63V128.764C476.63 128.551 476.55 128.371 476.39 128.224C476.243 128.064 476.063 127.984 475.85 127.984H468.89C468.676 127.984 468.49 128.064 468.33 128.224C468.183 128.371 468.11 128.551 468.11 128.764V130.544C468.11 130.758 468.183 130.944 468.33 131.104C468.49 131.251 468.676 131.324 468.89 131.324H475.85C476.303 131.324 476.71 131.438 477.07 131.664C477.443 131.878 477.736 132.171 477.95 132.544C478.176 132.904 478.29 133.304 478.29 133.744V135.524C478.29 135.964 478.176 136.371 477.95 136.744C477.736 137.104 477.443 137.398 477.07 137.624C476.71 137.838 476.303 137.944 475.85 137.944H468.89ZM481.301 137.944V122.544H482.941V126.344H490.701C491.141 126.344 491.541 126.458 491.901 126.684C492.274 126.898 492.567 127.191 492.781 127.564C493.007 127.924 493.121 128.324 493.121 128.764V137.944H491.481V128.764C491.481 128.551 491.401 128.371 491.241 128.224C491.094 128.064 490.914 127.984 490.701 127.984H483.741C483.527 127.984 483.341 128.064 483.181 128.224C483.021 128.371 482.941 128.551 482.941 128.764V137.944H481.301ZM498.02 137.944C497.58 137.944 497.173 137.838 496.8 137.624C496.44 137.398 496.147 137.104 495.92 136.744C495.707 136.371 495.6 135.964 495.6 135.524V128.764C495.6 128.324 495.707 127.924 495.92 127.564C496.147 127.191 496.44 126.898 496.8 126.684C497.173 126.458 497.58 126.344 498.02 126.344H504.98C505.433 126.344 505.84 126.458 506.2 126.684C506.573 126.898 506.867 127.191 507.08 127.564C507.307 127.924 507.42 128.324 507.42 128.764V135.524C507.42 135.964 507.307 136.371 507.08 136.744C506.867 137.104 506.573 137.398 506.2 137.624C505.84 137.838 505.433 137.944 504.98 137.944H498.02ZM498.02 136.304H504.98C505.193 136.304 505.373 136.231 505.52 136.084C505.68 135.924 505.76 135.738 505.76 135.524V128.764C505.76 128.551 505.68 128.371 505.52 128.224C505.373 128.064 505.193 127.984 504.98 127.984H498.02C497.807 127.984 497.62 128.064 497.46 128.224C497.313 128.371 497.24 128.551 497.24 128.764V135.524C497.24 135.738 497.313 135.924 497.46 136.084C497.62 136.231 497.807 136.304 498.02 136.304ZM510.508 142.544V126.344H519.908C520.348 126.344 520.748 126.458 521.108 126.684C521.481 126.898 521.774 127.191 521.988 127.564C522.214 127.924 522.328 128.324 522.328 128.764V135.524C522.328 135.964 522.214 136.371 521.988 136.744C521.774 137.104 521.481 137.398 521.108 137.624C520.748 137.838 520.348 137.944 519.908 137.944H512.148V142.544H510.508ZM512.948 136.304H519.908C520.121 136.304 520.301 136.231 520.448 136.084C520.608 135.924 520.688 135.738 520.688 135.524V128.764C520.688 128.551 520.608 128.371 520.448 128.224C520.301 128.064 520.121 127.984 519.908 127.984H512.948C512.734 127.984 512.548 128.064 512.388 128.224C512.228 128.371 512.148 128.551 512.148 128.764V135.524C512.148 135.738 512.228 135.924 512.388 136.084C512.548 136.231 512.734 136.304 512.948 136.304Z" fill="white"/>
<line x1="269.5" y1="130" x2="359.5" y2="130" stroke="white"/>
<path d="M245 200L270 230L245 260H25L0 230L25 200H245Z" fill="white"/>
<path d="M73.3565 239V221.72H76.0205L88.6925 236.792V221.72H90.6365V239H87.9725L75.3005 223.928V239H73.3565ZM97.3093 239C96.7813 239 96.2933 238.872 95.8453 238.616C95.4133 238.344 95.0613 237.992 94.7893 237.56C94.5333 237.112 94.4053 236.624 94.4053 236.096V227.984C94.4053 227.456 94.5333 226.976 94.7893 226.544C95.0613 226.096 95.4133 225.744 95.8453 225.488C96.2933 225.216 96.7813 225.08 97.3093 225.08H105.661C106.205 225.08 106.693 225.216 107.125 225.488C107.573 225.744 107.925 226.096 108.181 226.544C108.453 226.976 108.589 227.456 108.589 227.984V233.024H96.3733V236.096C96.3733 236.352 96.4613 236.576 96.6373 236.768C96.8293 236.944 97.0533 237.032 97.3093 237.032H108.589V239H97.3093ZM96.3733 231.056H106.597V227.984C106.597 227.728 106.501 227.512 106.309 227.336C106.133 227.144 105.917 227.048 105.661 227.048H97.3093C97.0533 227.048 96.8293 227.144 96.6373 227.336C96.4613 227.512 96.3733 227.728 96.3733 227.984V231.056ZM111.704 239V238.976L117.512 231.92L111.704 225.104V225.08H114.296L118.808 230.36L123.344 225.08H125.912V225.104L120.104 231.92L125.936 238.976V239H123.344L118.808 233.432L114.296 239H111.704ZM132.593 239C132.049 239 131.553 238.872 131.105 238.616C130.673 238.344 130.329 237.992 130.073 237.56C129.817 237.112 129.689 236.624 129.689 236.096V220.52H131.657V225.08H137.681V227.048H131.657V236.096C131.657 236.352 131.745 236.576 131.921 236.768C132.113 236.944 132.337 237.032 132.593 237.032H137.681V239H132.593ZM143.565 239C143.037 239 142.549 238.872 142.101 238.616C141.669 238.36 141.325 238.016 141.069 237.584C140.813 237.136 140.685 236.648 140.685 236.12V235.448H142.629V236.12C142.629 236.376 142.717 236.6 142.893 236.792C143.085 236.968 143.309 237.056 143.565 237.056H155.085C155.341 237.056 155.557 236.968 155.733 236.792C155.925 236.6 156.021 236.376 156.021 236.12V232.256C156.021 232 155.925 231.784 155.733 231.608C155.557 231.432 155.341 231.344 155.085 231.344H143.565C143.037 231.344 142.549 231.216 142.101 230.96C141.669 230.688 141.325 230.336 141.069 229.904C140.813 229.472 140.685 228.992 140.685 228.464V224.6C140.685 224.072 140.813 223.592 141.069 223.16C141.325 222.712 141.669 222.36 142.101 222.104C142.549 221.848 143.037 221.72 143.565 221.72H155.085C155.613 221.72 156.093 221.848 156.525 222.104C156.973 222.36 157.325 222.712 157.581 223.16C157.837 223.592 157.965 224.072 157.965 224.6V225.272H156.021V224.6C156.021 224.344 155.925 224.128 155.733 223.952C155.557 223.76 155.341 223.664 155.085 223.664H143.565C143.309 223.664 143.085 223.76 142.893 223.952C142.717 224.128 142.629 224.344 142.629 224.6V228.464C142.629 228.72 142.717 228.936 142.893 229.112C143.085 229.288 143.309 229.376 143.565 229.376H155.085C155.613 229.376 156.093 229.512 156.525 229.784C156.973 230.04 157.325 230.384 157.581 230.816C157.837 231.248 157.965 231.728 157.965 232.256V236.12C157.965 236.648 157.837 237.136 157.581 237.584C157.325 238.016 156.973 238.36 156.525 238.616C156.093 238.872 155.613 239 155.085 239H143.565ZM161.691 239V220.52H163.659V231.056H167.499L172.971 225.08H175.563V225.104L169.251 232.04L175.539 238.976V239H172.971L167.499 233.024H163.659V239H161.691ZM178.359 239V225.08H180.327V239H178.359ZM178.359 222.488V220.52H180.327V222.488H178.359ZM187.455 239C186.927 239 186.439 238.872 185.991 238.616C185.559 238.344 185.207 237.992 184.935 237.56C184.679 237.112 184.551 236.624 184.551 236.096V220.52H186.519V236.096C186.519 236.352 186.607 236.576 186.783 236.768C186.975 236.944 187.199 237.032 187.455 237.032H189.807V239H187.455ZM195.897 239C195.369 239 194.881 238.872 194.433 238.616C194.001 238.344 193.649 237.992 193.377 237.56C193.121 237.112 192.993 236.624 192.993 236.096V220.52H194.961V236.096C194.961 236.352 195.049 236.576 195.225 236.768C195.417 236.944 195.641 237.032 195.897 237.032H198.249V239H195.897Z" fill="#121212"/>
<path d="M559 230L538.787 254H379.213L359 230L379.213 206H538.787L559 230Z" fill="black" fill-opacity="0.6"/>
<path d="M559 230L538.787 254H379.213L359 230L379.213 206H538.787L559 230ZM360.392 230L379.706 252.933H538.294L557.607 230L538.294 207.067H379.706L360.392 230Z" fill="white"/>
<path d="M435.294 237.667V223.287H447.294C447.734 223.287 448.134 223.4 448.494 223.627C448.867 223.84 449.16 224.127 449.374 224.487C449.587 224.847 449.694 225.247 449.694 225.687V229.907C449.694 230.347 449.587 230.747 449.374 231.107C449.16 231.467 448.867 231.76 448.494 231.987C448.134 232.2 447.734 232.307 447.294 232.307H436.914V237.667H435.294ZM437.694 230.667H447.294C447.507 230.667 447.687 230.593 447.834 230.447C447.994 230.3 448.074 230.12 448.074 229.907V225.687C448.074 225.473 447.994 225.293 447.834 225.147C447.687 224.987 447.507 224.907 447.294 224.907H437.694C437.48 224.907 437.294 224.987 437.134 225.147C436.987 225.293 436.914 225.473 436.914 225.687V229.907C436.914 230.12 436.987 230.3 437.134 230.447C437.294 230.593 437.48 230.667 437.694 230.667ZM452.134 237.667V223.267H453.754V229.647H465.254V223.267H466.894V237.667H465.254V231.287H453.754V237.667H452.134ZM470.126 237.667V223.287H482.126C482.566 223.287 482.966 223.4 483.326 223.627C483.699 223.84 483.993 224.127 484.206 224.487C484.419 224.847 484.526 225.247 484.526 225.687V229.907C484.526 230.347 484.419 230.747 484.206 231.107C483.993 231.467 483.699 231.76 483.326 231.987C482.966 232.2 482.566 232.307 482.126 232.307H471.746V237.667H470.126ZM472.526 230.667H482.126C482.339 230.667 482.519 230.593 482.666 230.447C482.826 230.3 482.906 230.12 482.906 229.907V225.687C482.906 225.473 482.826 225.293 482.666 225.147C482.519 224.987 482.339 224.907 482.126 224.907H472.526C472.313 224.907 472.126 224.987 471.966 225.147C471.819 225.293 471.746 225.473 471.746 225.687V229.907C471.746 230.12 471.819 230.3 471.966 230.447C472.126 230.593 472.313 230.667 472.526 230.667Z" fill="white"/>
<line x1="269.5" y1="230" x2="359.5" y2="230" stroke="white"/>
</svg>
